M48
METRIC,LZ,000.000
;FILE_FORMAT=3:3
;TYPE=PLATED
;Layer: PTH_Through
;EasyEDA v6.5.23, 2023-02-02 22:02:21
;32823ceedc35475fa8f26cd2c4d51936,8932fd0543d740e3b58317cc2374636b,10
;Gerber Generator version 0.2
;Holesize 1 = 0.762 mm
T01C0.762
;Holesize 2 = 0.800 mm
T02C0.800
;Holesize 3 = 0.915 mm
T03C0.915
;Holesize 4 = 1.000 mm
T04C1.000
;Holesize 5 = 1.016 mm
T05C1.016
;Holesize 6 = 1.021 mm
T06C1.021
;Holesize 7 = 1.101 mm
T07C1.101
;Holesize 8 = 1.200 mm
T08C1.200
;Holesize 9 = 1.600 mm
T09C1.600
;Holesize 10 = 1.800 mm
T10C1.800
;Holesize 11 = 2.032 mm
T11C2.032
;Holesize 12 = 3.050 mm
T12C3.050
%
G05
G90
T01
X-012745Y-016624
X-010205Y-016624
X-007665Y-016624
X-005125Y-016624
X-002585Y-016624
X-000045Y-016624
X002495Y-016624
X005035Y-016624
X007575Y-016624
X010115Y-016624
X012655Y-016624
X015195Y-016624
X015195Y-001384
X012655Y-001384
X010115Y-001384
X007575Y-001384
X005035Y-001384
X002495Y-001384
X-000045Y-001384
X-002585Y-001384
X-005125Y-001384
X-007665Y-001384
X-010205Y-001384
X-012745Y-001384
X-003855Y-003924
X-001315Y-003924
X015195Y-003924
X015195Y-006464
X015195Y-009004
X-015285Y-015354
X-015285Y-012814
X-015285Y-010274
X-015285Y-007734
X-015285Y-005194
X-015285Y-002654
T02
X-014523Y030874
X-014523Y033414
T03
X-003601Y027572
X-001059Y027572
X001483Y027572
X004025Y027572
X-002458Y-020688
X000082Y-020688
X002622Y-020688
T04
X010242Y034684
X010242Y032144
X-009697Y034684
X-009697Y032144
X-035193Y-022847
X-041193Y-022847
X-035193Y-026848
X-041193Y-026848
X-029920Y-024244
X-023921Y-024244
X-029920Y-020244
X-023921Y-020244
X024182Y-023863
X030181Y-023863
X024182Y-019863
X030181Y-019863
X042404Y-022847
X036404Y-022847
X042404Y-026848
X036404Y-026848
X-028053Y009022G85X-028053Y008022
X026947Y008022G85X026947Y009022
X026940Y-008054G85X026940Y-009054
X-028060Y-009054G85X-028060Y-008054
T05
X-032131Y031369
X-029591Y031369
X-027051Y031369
X-024511Y031369
X-021971Y031369
X-019431Y031369
X-039539Y022746G85X-039544Y022746
X-042039Y022746G85X-042044Y022746
X-037039Y022746G85X-037044Y022746
X041233Y022619G85X041228Y022619
X038733Y022619G85X038728Y022619
X043733Y022619G85X043728Y022619
T06
X-032131Y028829
X-029591Y028829
X-027051Y028829
X-024511Y028829
X-021971Y028829
X-019431Y028829
T07
X002667Y039370
X000127Y039370
X-002413Y039370
X-008779Y020112
X-006239Y020112
X-003699Y020112
X-001159Y020112
X001381Y020112
X003921Y020112
X006461Y020112
X009001Y020112
T08
X-003598Y032018
X-003601Y034558
X-001061Y032018
X-001061Y034558
X001479Y032018
X001479Y034558
X004019Y032018
X004019Y034558
X038055Y026810
X035515Y026810
X-046307Y-005126
X-046307Y-007626
X-046307Y-010126
X-040077Y-016356
X-037577Y-016356
X-035077Y-016356
X030020Y-005253
X030020Y-007753
X030020Y-010253
X036250Y-016483
X038750Y-016483
X041250Y-016483
X-022255Y012712G85X-023555Y012712
X-022255Y017412G85X-023555Y017412
X-022255Y022112G85X-023555Y022112
X025497Y012585G85X024197Y012585
X025497Y017285G85X024197Y017285
X025497Y021985G85X024197Y021985
X030563Y028977G85X030563Y029977
X025863Y028977G85X025863Y029977
X021163Y028977G85X021163Y029977
X025863Y028977G85X025863Y029977
T09
X-034058Y-001834
X-041058Y-001834
X-034058Y002666
X-041058Y002666
X042269Y-001961
X035269Y-001961
X042269Y002539
X035269Y002539
T10
X-031253Y-012626
X-031253Y-002626
X-043903Y-002626
X-043903Y-012626
X045074Y-012753
X045074Y-002753
X032424Y-002753
X032424Y-012753
T11
X-035097Y015723G85X-035097Y015718
X-043962Y015748G85X-043962Y015743
X045675Y015596G85X045675Y015591
X036810Y015621G85X036810Y015616
T12
X032863Y022553
X-031137Y022553
X-045137Y-020447
X046863Y-020447
M30
