M48
METRIC,LZ,000.000
;FILE_FORMAT=3:3
;TYPE=PLATED
;Layer: PTH_Through_Via
;EasyEDA v6.5.23, 2023-02-02 22:02:21
;32823ceedc35475fa8f26cd2c4d51936,8932fd0543d740e3b58317cc2374636b,10
;Gerber Generator version 0.2
;Holesize 1 = 0.305 mm
T01C0.305
%
G05
G90
T01
X-005969Y-006477
X-008509Y-009525
X-008255Y-003937
X008578Y-008001
X018669Y-008509
X017399Y-009779
X000889Y-010160
X-000762Y-010160
X-009779Y-013462
X-012573Y-010795
X011938Y-008890
X008636Y-004064
X-006350Y-003683
X020574Y-007493
X026543Y-003302
X007112Y-020193
X-007874Y-020574
X-024130Y-009398
X-019812Y-020193
X-036957Y-013208
X-029718Y-028575
X-014097Y-021844
X039624Y-024638
X033147Y-019050
X029591Y015367
X029337Y026035
X013716Y024130
X005461Y025654
X-006096Y036322
X-005969Y040767
X006477Y043180
X-036957Y026416
X-019177Y033909
X-048133Y005207
X-043053Y010922
X-034925Y012065
X-038227Y-024765
X-027051Y-023622
X027178Y-023241
M30
