G04 Layer: TopSolderMaskLayer*
G04 EasyEDA v6.5.23, 2023-02-02 22:02:21*
G04 32823ceedc35475fa8f26cd2c4d51936,8932fd0543d740e3b58317cc2374636b,10*
G04 Gerber Generator version 0.2*
G04 Scale: 100 percent, Rotated: No, Reflected: No *
G04 Dimensions in millimeters *
G04 leading zeros omitted , absolute positions ,4 integer and 5 decimal *
%FSLAX45Y45*%
%MOMM*%

%AMMACRO1*1,1,$1,$2,$3*1,1,$1,$4,$5*1,1,$1,0-$2,0-$3*1,1,$1,0-$4,0-$5*20,1,$1,$2,$3,$4,$5,0*20,1,$1,$4,$5,0-$2,0-$3,0*20,1,$1,0-$2,0-$3,0-$4,0-$5,0*20,1,$1,0-$4,0-$5,$2,$3,0*4,1,4,$2,$3,$4,$5,0-$2,0-$3,0-$4,0-$5,$2,$3,0*%
%ADD10C,1.7016*%
%ADD11MACRO1,0.1016X0.9X-0.8X-0.9X-0.8*%
%ADD12C,1.9817*%
%ADD13C,1.9812*%
%ADD14MACRO1,0.1016X-0.9X0.9X0.9X0.9*%
%ADD15C,1.9016*%
%ADD16C,1.6256*%
%ADD17MACRO1,0.1016X0.85X-0.85X-0.85X-0.85*%
%ADD18C,1.8016*%
%ADD19MACRO1,0.1016X1X-1X-1X-1*%
%ADD20C,2.1016*%
%ADD21C,2.6016*%
%ADD22C,2.3016*%
%ADD23MACRO1,0.1016X-1.5X-0.9X-1.5X0.9*%
%ADD24O,3.101594X1.9015964*%
%ADD25MACRO1,0.1016X-0.955X0.7493X0.955X0.7493*%
%ADD26C,2.0116*%
%ADD27C,1.7032*%
%ADD28C,1.7272*%
%ADD29O,3.0031944000000004X3.703193*%
%ADD30C,1.9812*%
%ADD31MACRO1,0.2032X1.4X1.5X1.4X-1.5*%
%ADD32MACRO1,0.2032X-0.762X0.762X0.762X0.762*%
%ADD33C,1.9032*%
%ADD34MACRO1,0.2032X0.85X-0.85X-0.85X-0.85*%
%ADD35O,2.2031959999999997X3.2031940000000003*%
%ADD36C,4.1016*%
%ADD37C,0.0180*%

%LPD*%
G36*
X2060956Y838758D02*
G01*
X2050694Y838453D01*
X2040636Y837539D01*
X2030933Y835964D01*
X2021586Y833780D01*
X2012594Y830935D01*
X2004009Y827481D01*
X1995881Y823366D01*
X1988210Y818540D01*
X1981098Y813053D01*
X1977745Y810107D01*
X1971446Y803605D01*
X1965147Y795680D01*
X1959203Y786892D01*
X1954275Y778052D01*
X1950364Y769264D01*
X1947468Y760526D01*
X1945538Y751890D01*
X1944573Y743305D01*
X1944522Y734923D01*
X1945436Y726643D01*
X1947265Y718515D01*
X1948484Y714552D01*
X1951634Y706780D01*
X1955596Y699211D01*
X1960473Y691896D01*
X1963166Y688340D01*
X1969262Y681482D01*
X1976170Y674928D01*
X1983841Y668731D01*
X1992274Y662889D01*
X2001418Y657402D01*
X2011375Y652373D01*
X2021992Y647750D01*
X2033320Y643636D01*
X2045309Y639927D01*
X2058009Y636778D01*
X2071319Y634187D01*
X2085238Y632104D01*
X2101189Y630377D01*
X2117902Y628243D01*
X2133600Y625805D01*
X2148281Y623112D01*
X2161946Y620064D01*
X2174646Y616661D01*
X2186381Y612952D01*
X2197100Y608939D01*
X2206853Y604570D01*
X2215692Y599795D01*
X2223516Y594715D01*
X2227072Y592074D01*
X2233472Y586435D01*
X2238959Y580390D01*
X2241346Y577291D01*
X2245410Y570687D01*
X2247087Y567283D01*
X2249728Y560120D01*
X2250744Y556412D01*
X2251506Y552551D01*
X2252370Y544626D01*
X2252268Y536244D01*
X2251303Y527507D01*
X2249474Y518312D01*
X2246731Y508660D01*
X2243074Y498652D01*
X2238603Y488137D01*
X2226056Y460705D01*
X2221839Y451002D01*
X2219045Y443992D01*
X2217724Y439623D01*
X2217674Y438454D01*
X2217978Y437896D01*
X2218690Y438048D01*
X2219807Y438810D01*
X2223211Y442264D01*
X2228342Y448309D01*
X2254351Y481685D01*
X2263800Y494690D01*
X2272639Y508101D01*
X2280615Y521563D01*
X2287625Y534670D01*
X2293366Y547014D01*
X2297734Y558241D01*
X2299309Y563321D01*
X2300478Y567944D01*
X2301189Y572109D01*
X2301697Y578713D01*
X2302408Y580898D01*
X2303576Y582269D01*
X2305151Y582879D01*
X2307132Y582777D01*
X2309520Y581914D01*
X2312212Y580390D01*
X2315260Y578154D01*
X2322271Y571754D01*
X2330246Y562813D01*
X2339086Y551535D01*
X2355342Y528624D01*
X2362708Y519836D01*
X2370531Y511657D01*
X2378811Y504190D01*
X2387600Y497382D01*
X2396794Y491235D01*
X2406446Y485800D01*
X2416556Y481076D01*
X2427020Y477012D01*
X2437841Y473709D01*
X2449068Y471119D01*
X2460650Y469239D01*
X2472537Y468122D01*
X2502255Y467258D01*
X2517698Y465835D01*
X2524709Y464718D01*
X2531211Y463397D01*
X2537256Y461822D01*
X2542794Y459993D01*
X2547823Y457860D01*
X2552446Y455523D01*
X2556611Y452882D01*
X2560269Y449986D01*
X2563520Y446836D01*
X2566263Y443382D01*
X2568651Y439674D01*
X2570530Y435660D01*
X2572004Y431393D01*
X2573070Y426872D01*
X2573680Y421995D01*
X2573883Y416864D01*
X2573680Y410514D01*
X2573121Y404825D01*
X2572156Y399694D01*
X2570784Y395224D01*
X2569057Y391312D01*
X2566873Y388010D01*
X2564282Y385318D01*
X2561234Y383235D01*
X2557830Y381762D01*
X2553919Y380847D01*
X2549550Y380492D01*
X2544775Y380746D01*
X2539542Y381558D01*
X2533802Y382981D01*
X2527604Y384911D01*
X2500731Y395274D01*
X2487574Y399948D01*
X2462072Y408127D01*
X2449779Y411632D01*
X2437790Y414782D01*
X2426157Y417525D01*
X2404059Y421893D01*
X2383586Y424840D01*
X2373985Y425805D01*
X2364892Y426415D01*
X2356256Y426669D01*
X2348179Y426618D01*
X2340559Y426262D01*
X2333548Y425551D01*
X2327097Y424586D01*
X2321204Y423265D01*
X2315972Y421690D01*
X2311349Y419760D01*
X2307336Y417626D01*
X2304034Y415137D01*
X2301443Y412445D01*
X2299512Y409448D01*
X2298344Y406146D01*
X2297938Y402640D01*
X2298293Y398881D01*
X2299411Y394919D01*
X2301392Y390652D01*
X2304186Y386181D01*
X2307793Y381508D01*
X2312314Y376631D01*
X2317750Y371500D01*
X2324049Y366166D01*
X2331313Y360629D01*
X2339492Y354939D01*
X2348687Y349046D01*
X2370328Y336296D01*
X2375966Y332689D01*
X2381199Y328930D01*
X2386025Y325120D01*
X2390444Y321157D01*
X2394458Y317144D01*
X2398064Y313029D01*
X2401265Y308864D01*
X2404059Y304546D01*
X2406446Y300177D01*
X2408478Y295706D01*
X2410053Y291134D01*
X2411222Y286461D01*
X2411984Y281736D01*
X2412339Y276961D01*
X2412288Y272034D01*
X2411831Y267055D01*
X2410917Y262026D01*
X2409647Y256895D01*
X2404618Y242316D01*
X2402128Y234492D01*
X2400452Y228142D01*
X2399588Y223266D01*
X2399538Y219862D01*
X2400350Y217932D01*
X2402078Y217373D01*
X2404668Y218287D01*
X2408174Y220573D01*
X2412593Y224282D01*
X2417978Y229311D01*
X2427071Y238302D01*
X2430221Y240792D01*
X2433726Y243128D01*
X2437587Y245313D01*
X2446223Y249275D01*
X2456078Y252577D01*
X2466949Y255320D01*
X2478735Y257352D01*
X2491333Y258775D01*
X2504643Y259486D01*
X2518511Y259537D01*
X2532837Y258825D01*
X2547467Y257454D01*
X2581402Y252272D01*
X2598115Y250190D01*
X2612593Y249072D01*
X2624988Y248920D01*
X2630424Y249275D01*
X2635402Y249885D01*
X2639923Y250748D01*
X2643987Y251866D01*
X2647645Y253339D01*
X2650896Y255066D01*
X2653741Y257048D01*
X2656230Y259384D01*
X2658313Y262026D01*
X2660142Y264972D01*
X2661615Y268224D01*
X2662732Y271830D01*
X2663647Y275742D01*
X2664561Y284581D01*
X2664714Y289509D01*
X2664358Y296519D01*
X2663444Y303225D01*
X2661920Y309575D01*
X2659888Y315518D01*
X2657398Y321005D01*
X2654401Y325983D01*
X2651048Y330352D01*
X2647340Y334060D01*
X2643327Y337058D01*
X2639009Y339293D01*
X2634437Y340664D01*
X2624836Y341579D01*
X2621076Y342849D01*
X2618384Y344982D01*
X2616758Y347878D01*
X2616200Y351536D01*
X2616758Y355955D01*
X2618384Y361086D01*
X2621026Y366877D01*
X2624734Y373380D01*
X2629509Y380492D01*
X2635300Y388213D01*
X2646375Y401574D01*
X2654300Y411784D01*
X2661615Y422148D01*
X2668270Y432612D01*
X2674315Y443280D01*
X2679700Y454151D01*
X2684424Y465175D01*
X2688539Y476453D01*
X2691993Y487934D01*
X2694889Y499618D01*
X2697124Y511606D01*
X2698750Y523849D01*
X2699766Y536346D01*
X2700172Y549148D01*
X2699969Y562305D01*
X2699156Y575716D01*
X2698546Y582574D01*
X2698038Y585876D01*
X2697175Y589178D01*
X2695956Y592480D01*
X2694381Y595782D01*
X2692501Y599084D01*
X2690317Y602386D01*
X2684983Y608888D01*
X2678480Y615289D01*
X2670962Y621538D01*
X2662428Y627634D01*
X2652979Y633577D01*
X2642717Y639318D01*
X2631744Y644804D01*
X2620060Y650036D01*
X2607818Y654964D01*
X2595067Y659587D01*
X2581910Y663854D01*
X2568397Y667715D01*
X2554630Y671220D01*
X2540660Y674268D01*
X2526639Y676859D01*
X2512568Y678992D01*
X2498598Y680567D01*
X2484729Y681634D01*
X2471115Y682091D01*
X2457805Y681990D01*
X2444902Y681228D01*
X2432456Y679856D01*
X2407107Y675182D01*
X2394610Y673303D01*
X2382926Y672084D01*
X2371953Y671626D01*
X2361590Y671982D01*
X2351786Y673100D01*
X2342388Y675132D01*
X2333294Y677976D01*
X2324506Y681786D01*
X2315870Y686562D01*
X2307234Y692302D01*
X2298598Y699058D01*
X2289860Y706932D01*
X2280869Y715873D01*
X2271522Y725932D01*
X2252980Y747217D01*
X2243734Y756716D01*
X2234133Y765810D01*
X2224227Y774344D01*
X2214067Y782421D01*
X2203602Y789990D01*
X2192934Y797052D01*
X2182114Y803554D01*
X2171141Y809548D01*
X2160066Y814984D01*
X2148890Y819912D01*
X2137664Y824280D01*
X2126437Y828090D01*
X2115261Y831342D01*
X2104136Y833983D01*
X2093112Y836066D01*
X2082190Y837590D01*
X2071471Y838504D01*
G37*
G36*
X1998725Y594309D02*
G01*
X1992020Y594156D01*
X1985822Y593648D01*
X1980031Y592785D01*
X1974697Y591566D01*
X1969770Y589991D01*
X1965299Y587959D01*
X1961184Y585470D01*
X1957476Y582574D01*
X1954123Y579221D01*
X1951126Y575310D01*
X1948484Y570941D01*
X1946198Y566064D01*
X1944217Y560628D01*
X1942541Y554634D01*
X1941118Y548030D01*
X1940052Y540867D01*
X1939188Y533044D01*
X1938274Y515467D01*
X1938223Y498652D01*
X1938782Y485038D01*
X1939798Y472033D01*
X1941423Y459740D01*
X1943557Y448056D01*
X1946249Y437032D01*
X1949450Y426618D01*
X1953260Y416864D01*
X1957628Y407720D01*
X1962556Y399186D01*
X1968093Y391312D01*
X1974189Y383997D01*
X1980895Y377240D01*
X1988159Y371144D01*
X1996084Y365607D01*
X2004568Y360680D01*
X2013712Y356260D01*
X2023465Y352450D01*
X2033828Y349250D01*
X2044801Y346557D01*
X2056434Y344373D01*
X2068728Y342798D01*
X2081682Y341731D01*
X2095296Y341223D01*
X2135987Y341274D01*
X2148738Y341630D01*
X2158847Y342290D01*
X2166416Y343408D01*
X2169210Y344119D01*
X2171395Y345033D01*
X2172970Y346100D01*
X2173935Y347319D01*
X2174290Y348742D01*
X2174036Y350367D01*
X2173173Y352196D01*
X2171750Y354228D01*
X2169718Y356565D01*
X2163978Y361950D01*
X2156002Y368452D01*
X2121814Y394055D01*
X2112670Y402082D01*
X2108250Y406450D01*
X2099868Y415848D01*
X2092045Y425907D01*
X2084933Y436575D01*
X2078532Y447700D01*
X2072944Y459181D01*
X2068169Y470865D01*
X2066137Y476707D01*
X2062835Y488442D01*
X2061565Y494284D01*
X2059838Y505815D01*
X2059381Y511454D01*
X2059127Y525170D01*
X2058771Y532841D01*
X2058111Y539953D01*
X2057196Y546608D01*
X2055977Y552805D01*
X2054504Y558495D01*
X2052726Y563727D01*
X2050643Y568502D01*
X2048205Y572820D01*
X2045512Y576732D01*
X2042414Y580237D01*
X2039061Y583285D01*
X2035302Y585978D01*
X2031187Y588264D01*
X2026767Y590143D01*
X2021890Y591667D01*
X2016709Y592836D01*
X2011121Y593648D01*
X2005126Y594156D01*
G37*
G36*
X2264765Y357784D02*
G01*
X2263190Y357733D01*
X2261311Y356870D01*
X2259177Y355295D01*
X2256790Y353060D01*
X2254148Y350113D01*
X2248357Y342341D01*
X2245156Y337616D01*
X2238502Y326542D01*
X2231491Y313639D01*
X2224278Y299161D01*
X2217318Y283565D01*
X2211578Y268579D01*
X2209241Y261569D01*
X2205736Y248513D01*
X2204516Y242570D01*
X2203704Y237134D01*
X2203246Y232156D01*
X2203196Y227736D01*
X2203551Y223875D01*
X2204313Y220624D01*
X2205482Y218033D01*
X2207056Y216103D01*
X2209038Y214934D01*
X2211425Y214579D01*
X2214321Y215036D01*
X2217369Y216357D01*
X2220468Y218490D01*
X2223719Y221437D01*
X2227021Y225044D01*
X2230374Y229260D01*
X2233726Y234035D01*
X2240381Y245110D01*
X2246782Y257708D01*
X2252827Y271373D01*
X2258263Y285597D01*
X2262936Y299821D01*
X2266594Y313639D01*
X2269134Y326491D01*
X2269896Y332435D01*
X2270302Y337921D01*
X2270302Y342950D01*
X2269896Y347472D01*
X2269083Y351332D01*
X2267813Y354584D01*
X2266035Y357073D01*
G37*
G36*
X2195474Y308102D02*
G01*
X2113483Y306120D01*
X2100580Y305409D01*
X2087422Y304342D01*
X2074316Y302971D01*
X2061464Y301294D01*
X2049170Y299364D01*
X2037537Y297180D01*
X2026970Y294894D01*
X2017572Y292404D01*
X2009648Y289864D01*
X2006295Y288544D01*
X2001164Y285953D01*
X1996236Y282702D01*
X1991563Y278790D01*
X1987245Y274370D01*
X1983181Y269443D01*
X1979574Y264109D01*
X1976374Y258419D01*
X1973630Y252526D01*
X1971446Y246430D01*
X1969820Y240182D01*
X1968804Y233934D01*
X1968449Y227736D01*
X1968601Y222707D01*
X1969007Y217982D01*
X1969719Y213614D01*
X1970684Y209550D01*
X1971903Y205790D01*
X1973427Y202387D01*
X1975205Y199288D01*
X1977237Y196494D01*
X1979472Y194056D01*
X1982012Y191871D01*
X1984756Y190042D01*
X1987753Y188569D01*
X1991004Y187350D01*
X1994458Y186486D01*
X1998167Y185928D01*
X2002078Y185674D01*
X2006193Y185724D01*
X2010511Y186131D01*
X2015083Y186842D01*
X2024735Y189179D01*
X2035251Y192735D01*
X2046427Y197561D01*
X2058365Y203657D01*
X2070963Y210972D01*
X2084171Y219506D01*
X2097989Y229260D01*
X2112416Y240233D01*
G37*
G36*
X2170480Y24282D02*
G01*
X2142794Y23774D01*
X2129536Y23114D01*
X2116683Y22199D01*
X2104339Y21031D01*
X2092502Y19558D01*
X2081326Y17830D01*
X2070760Y15798D01*
X2060956Y13512D01*
X2051964Y10972D01*
X2043734Y8128D01*
X2036419Y4978D01*
X2030069Y1574D01*
X2024684Y-2133D01*
X2022398Y-4064D01*
X2018690Y-8178D01*
X2017217Y-10363D01*
X2016048Y-12598D01*
X2014829Y-16256D01*
X2013204Y-24638D01*
X2011425Y-37134D01*
X2009495Y-53441D01*
X2005431Y-96418D01*
X2001164Y-150876D01*
X1996897Y-214375D01*
X1992833Y-284276D01*
X1988312Y-377444D01*
X1986127Y-429209D01*
X1984654Y-473811D01*
X1983892Y-511809D01*
X1983790Y-528421D01*
X1984248Y-557326D01*
X1984806Y-569722D01*
X1985568Y-580796D01*
X1986584Y-590651D01*
X1987804Y-599338D01*
X1989277Y-606856D01*
X1991055Y-613359D01*
X1993036Y-618845D01*
X1995322Y-623417D01*
X1997913Y-627075D01*
X2000757Y-629920D01*
X2003856Y-632053D01*
X2007311Y-633425D01*
X2011070Y-634238D01*
X2015083Y-634390D01*
X2019503Y-634085D01*
X2024176Y-633323D01*
X2026869Y-632612D01*
X2029612Y-631545D01*
X2032355Y-630174D01*
X2037994Y-626414D01*
X2040889Y-624078D01*
X2046681Y-618439D01*
X2052523Y-611682D01*
X2058416Y-603758D01*
X2064308Y-594766D01*
X2070201Y-584758D01*
X2076043Y-573836D01*
X2081784Y-562000D01*
X2087372Y-549300D01*
X2092858Y-535787D01*
X2098141Y-521563D01*
X2103221Y-506679D01*
X2108047Y-491134D01*
X2118106Y-455320D01*
X2123440Y-437337D01*
X2128672Y-421081D01*
X2133803Y-406450D01*
X2138832Y-393395D01*
X2143861Y-381965D01*
X2148890Y-372059D01*
X2153920Y-363626D01*
X2159000Y-356616D01*
X2164181Y-351078D01*
X2166772Y-348792D01*
X2169414Y-346811D01*
X2174798Y-343916D01*
X2177542Y-342950D01*
X2180336Y-342290D01*
X2186025Y-341934D01*
X2188972Y-342188D01*
X2195017Y-343560D01*
X2203856Y-347065D01*
X2213457Y-351586D01*
X2217318Y-353822D01*
X2220620Y-356057D01*
X2223312Y-358343D01*
X2225395Y-360781D01*
X2226868Y-363321D01*
X2227732Y-366014D01*
X2227935Y-368960D01*
X2227580Y-372059D01*
X2226614Y-375513D01*
X2225040Y-379222D01*
X2222855Y-383286D01*
X2220061Y-387756D01*
X2212594Y-397916D01*
X2202688Y-410006D01*
X2192477Y-421944D01*
X2184603Y-431952D01*
X2177643Y-441756D01*
X2171598Y-451256D01*
X2166467Y-460552D01*
X2162200Y-469493D01*
X2158796Y-478180D01*
X2156256Y-486460D01*
X2154529Y-494436D01*
X2153615Y-502005D01*
X2153462Y-509219D01*
X2154072Y-515975D01*
X2154631Y-519226D01*
X2156358Y-525322D01*
X2158796Y-530961D01*
X2161946Y-536092D01*
X2165756Y-540715D01*
X2170226Y-544830D01*
X2175306Y-548386D01*
X2181047Y-551383D01*
X2187346Y-553770D01*
X2194204Y-555548D01*
X2201672Y-556666D01*
X2209647Y-557123D01*
X2218131Y-556971D01*
X2227173Y-556056D01*
X2236622Y-554431D01*
X2246579Y-552094D01*
X2256942Y-548995D01*
X2267762Y-545084D01*
X2278938Y-540410D01*
X2290521Y-534924D01*
X2314702Y-522122D01*
X2326589Y-516686D01*
X2338171Y-512267D01*
X2349449Y-508812D01*
X2360422Y-506425D01*
X2371140Y-504951D01*
X2381504Y-504545D01*
X2386634Y-504698D01*
X2396591Y-505714D01*
X2401519Y-506628D01*
X2411120Y-509168D01*
X2420467Y-512724D01*
X2435555Y-520395D01*
X2441194Y-522884D01*
X2446578Y-524865D01*
X2451658Y-526288D01*
X2456434Y-527253D01*
X2460853Y-527659D01*
X2464968Y-527659D01*
X2468727Y-527253D01*
X2472131Y-526389D01*
X2475128Y-525170D01*
X2477770Y-523595D01*
X2480005Y-521665D01*
X2481884Y-519430D01*
X2483307Y-516940D01*
X2484272Y-514146D01*
X2484831Y-511149D01*
X2484932Y-507949D01*
X2484628Y-504545D01*
X2483764Y-500989D01*
X2482443Y-497332D01*
X2480665Y-493522D01*
X2478328Y-489661D01*
X2475484Y-485749D01*
X2472131Y-481787D01*
X2468219Y-477774D01*
X2463749Y-473811D01*
X2458720Y-469900D01*
X2453132Y-466039D01*
X2449931Y-463550D01*
X2447290Y-460552D01*
X2445156Y-457098D01*
X2443632Y-453135D01*
X2442616Y-448767D01*
X2442159Y-443992D01*
X2442260Y-438810D01*
X2442870Y-433222D01*
X2444038Y-427278D01*
X2445715Y-420979D01*
X2447950Y-414375D01*
X2450744Y-407416D01*
X2453995Y-400202D01*
X2457805Y-392684D01*
X2462123Y-384860D01*
X2470607Y-370890D01*
X2477109Y-359206D01*
X2482646Y-347929D01*
X2487218Y-336956D01*
X2490825Y-326440D01*
X2493467Y-316382D01*
X2495245Y-306781D01*
X2496108Y-297688D01*
X2496108Y-289102D01*
X2495296Y-281076D01*
X2494584Y-277266D01*
X2492502Y-270154D01*
X2491181Y-266801D01*
X2487879Y-260654D01*
X2485999Y-257810D01*
X2481580Y-252628D01*
X2479141Y-250291D01*
X2473655Y-246227D01*
X2467457Y-242874D01*
X2464104Y-241503D01*
X2456891Y-239369D01*
X2453030Y-238556D01*
X2449017Y-237998D01*
X2440533Y-237540D01*
X2431440Y-237947D01*
X2421788Y-239267D01*
X2411526Y-241503D01*
X2400706Y-244754D01*
X2389378Y-248920D01*
X2365654Y-259384D01*
X2353411Y-263855D01*
X2340914Y-267614D01*
X2328214Y-270713D01*
X2315413Y-273100D01*
X2302560Y-274828D01*
X2289708Y-275894D01*
X2277008Y-276352D01*
X2264460Y-276148D01*
X2252218Y-275386D01*
X2240280Y-274015D01*
X2228748Y-272034D01*
X2217674Y-269544D01*
X2207209Y-266496D01*
X2197404Y-262890D01*
X2188260Y-258825D01*
X2179929Y-254203D01*
X2172462Y-249123D01*
X2165959Y-243586D01*
X2160422Y-237540D01*
X2158085Y-234391D01*
X2156002Y-231089D01*
X2154224Y-227685D01*
X2152751Y-224231D01*
X2151583Y-220624D01*
X2150770Y-216916D01*
X2150262Y-213156D01*
X2150059Y-209245D01*
X2150262Y-206806D01*
X2150872Y-204419D01*
X2151786Y-202082D01*
X2153107Y-199796D01*
X2154783Y-197612D01*
X2159152Y-193446D01*
X2164791Y-189534D01*
X2171598Y-185928D01*
X2179523Y-182575D01*
X2188514Y-179476D01*
X2198420Y-176682D01*
X2209190Y-174142D01*
X2220722Y-171907D01*
X2232964Y-169976D01*
X2245817Y-168300D01*
X2259177Y-166878D01*
X2272944Y-165760D01*
X2287066Y-164947D01*
X2301494Y-164388D01*
X2316073Y-164134D01*
X2330754Y-164185D01*
X2345436Y-164541D01*
X2360066Y-165150D01*
X2374544Y-166116D01*
X2388717Y-167335D01*
X2402636Y-168859D01*
X2416098Y-170637D01*
X2429052Y-172770D01*
X2441448Y-175209D01*
X2453182Y-177952D01*
X2464155Y-180949D01*
X2474315Y-184302D01*
X2483510Y-187960D01*
X2491740Y-191922D01*
X2498852Y-196189D01*
X2504795Y-200761D01*
X2509164Y-205333D01*
X2512771Y-210667D01*
X2514600Y-213817D01*
X2518054Y-221132D01*
X2521407Y-229616D01*
X2524556Y-239217D01*
X2527554Y-249834D01*
X2530348Y-261315D01*
X2532938Y-273608D01*
X2535275Y-286664D01*
X2537358Y-300278D01*
X2539187Y-314452D01*
X2540762Y-329031D01*
X2541981Y-343916D01*
X2542844Y-359054D01*
X2543403Y-374345D01*
X2543759Y-408889D01*
X2544267Y-426821D01*
X2545080Y-443433D01*
X2546248Y-458774D01*
X2547823Y-472897D01*
X2549702Y-485800D01*
X2552039Y-497585D01*
X2554681Y-508203D01*
X2557780Y-517804D01*
X2561285Y-526288D01*
X2565196Y-533806D01*
X2569565Y-540359D01*
X2574340Y-545947D01*
X2579624Y-550621D01*
X2585313Y-554431D01*
X2591511Y-557377D01*
X2606497Y-563168D01*
X2619806Y-567791D01*
X2631389Y-571296D01*
X2641142Y-573684D01*
X2649016Y-575005D01*
X2655011Y-575259D01*
X2657246Y-575005D01*
X2658973Y-574497D01*
X2660243Y-573735D01*
X2660954Y-572719D01*
X2661158Y-571500D01*
X2660853Y-569976D01*
X2659989Y-568248D01*
X2658567Y-566267D01*
X2654096Y-561644D01*
X2647340Y-556107D01*
X2638298Y-549706D01*
X2626868Y-542442D01*
X2619806Y-537616D01*
X2613304Y-532180D01*
X2607360Y-525983D01*
X2601976Y-519074D01*
X2597150Y-511251D01*
X2592832Y-502513D01*
X2588971Y-492861D01*
X2585618Y-482142D01*
X2582722Y-470306D01*
X2580284Y-457301D01*
X2578252Y-443077D01*
X2576626Y-427583D01*
X2575407Y-410768D01*
X2574544Y-392480D01*
X2574036Y-372719D01*
X2573782Y-333806D01*
X2572969Y-300634D01*
X2572207Y-284988D01*
X2569972Y-255473D01*
X2568498Y-241604D01*
X2566771Y-228295D01*
X2564739Y-215493D01*
X2562453Y-203200D01*
X2559862Y-191414D01*
X2557018Y-180136D01*
X2553817Y-169265D01*
X2550312Y-158851D01*
X2546502Y-148844D01*
X2542336Y-139192D01*
X2537815Y-129946D01*
X2532989Y-121107D01*
X2527757Y-112522D01*
X2522169Y-104292D01*
X2516225Y-96367D01*
X2509875Y-88696D01*
X2503119Y-81330D01*
X2496007Y-74168D01*
X2488438Y-67208D01*
X2480462Y-60502D01*
X2472029Y-53898D01*
X2463139Y-47498D01*
X2453843Y-41249D01*
X2444089Y-35102D01*
X2433828Y-29057D01*
X2423109Y-23114D01*
X2413660Y-18338D01*
X2403500Y-13817D01*
X2392578Y-9550D01*
X2381046Y-5537D01*
X2368956Y-1727D01*
X2356358Y1778D01*
X2343251Y5080D01*
X2329789Y8077D01*
X2315921Y10871D01*
X2301798Y13360D01*
X2272842Y17627D01*
X2250744Y20116D01*
X2235962Y21488D01*
X2206548Y23368D01*
X2177592Y24231D01*
G37*
D10*
G01*
X-3213100Y2882900D03*
G01*
X-2959100Y2882900D03*
G01*
X-2705100Y2882900D03*
G01*
X-2451100Y2882900D03*
G01*
X-2197100Y2882900D03*
D11*
G01*
X-1943100Y2882900D03*
D12*
G01*
X-1274495Y-1662404D03*
D13*
G01*
X-1020495Y-1662404D03*
G01*
X-766495Y-1662404D03*
G01*
X-512495Y-1662404D03*
G01*
X-258495Y-1662404D03*
G01*
X-4495Y-1662404D03*
G01*
X249504Y-1662404D03*
G01*
X503504Y-1662404D03*
G01*
X757504Y-1662404D03*
G01*
X1011504Y-1662404D03*
G01*
X1265504Y-1662404D03*
G01*
X1519504Y-1662404D03*
G01*
X1519504Y-138404D03*
G01*
X1265504Y-138404D03*
G01*
X1011504Y-138404D03*
G01*
X757504Y-138404D03*
G01*
X503504Y-138404D03*
G01*
X249504Y-138404D03*
G01*
X-4495Y-138404D03*
G01*
X-258495Y-138404D03*
G01*
X-512495Y-138404D03*
G01*
X-766495Y-138404D03*
G01*
X-1020495Y-138404D03*
G01*
X-1274495Y-138404D03*
G01*
X-385495Y-392404D03*
G01*
X-131495Y-392404D03*
G01*
X1519504Y-392404D03*
G01*
X1519504Y-646404D03*
G01*
X1519504Y-900404D03*
G01*
X-1528495Y-1535404D03*
G01*
X-1528495Y-1281404D03*
G01*
X-1528495Y-1027404D03*
G01*
X-1528495Y-773404D03*
G01*
X-1528495Y-519404D03*
G01*
X-1528495Y-265404D03*
D14*
G01*
X-359834Y3201809D03*
D15*
G01*
X-360095Y3455822D03*
G01*
X-106095Y3201822D03*
G01*
X-106095Y3455822D03*
G01*
X147904Y3201822D03*
G01*
X147904Y3455822D03*
G01*
X401904Y3201822D03*
G01*
X401904Y3455822D03*
D16*
G01*
X-360095Y2757195D03*
G01*
X-105892Y2757195D03*
G01*
X148310Y2757195D03*
G01*
X402513Y2757195D03*
D17*
G01*
X266700Y3937000D03*
D18*
G01*
X12700Y3937000D03*
G01*
X-241300Y3937000D03*
D10*
G01*
X1024204Y3468395D03*
G01*
X1024204Y3214395D03*
G01*
X-969695Y3468395D03*
G01*
X-969695Y3214395D03*
D19*
G01*
X3805504Y2680995D03*
D20*
G01*
X3551504Y2680995D03*
D15*
G01*
X-4630724Y-512571D03*
G01*
X-4630724Y-762584D03*
G01*
X-4630724Y-1012570D03*
G01*
X-4007738Y-1635582D03*
G01*
X-3757752Y-1635582D03*
G01*
X-3507739Y-1635582D03*
D21*
G01*
X-3125266Y-1262583D03*
G01*
X-3125266Y-262585D03*
G01*
X-4390262Y-262585D03*
G01*
X-4390262Y-1262583D03*
D22*
G01*
X-3405835Y-183387D03*
G01*
X-4105833Y-183387D03*
G01*
X-3405835Y266598D03*
G01*
X-4105833Y266598D03*
D15*
G01*
X3001975Y-525271D03*
G01*
X3001975Y-775284D03*
G01*
X3001975Y-1025270D03*
G01*
X3624961Y-1648282D03*
G01*
X3874947Y-1648282D03*
G01*
X4124959Y-1648282D03*
D21*
G01*
X4507433Y-1275283D03*
G01*
X4507433Y-275285D03*
G01*
X3242436Y-275285D03*
G01*
X3242436Y-1275283D03*
D22*
G01*
X4226864Y-196087D03*
G01*
X3526866Y-196087D03*
G01*
X4226864Y253898D03*
G01*
X3526866Y253898D03*
D23*
G01*
X-2290495Y1271193D03*
D24*
G01*
X-2290495Y1741195D03*
G01*
X-2290495Y2211196D03*
D23*
G01*
X2484704Y1258493D03*
D24*
G01*
X2484704Y1728495D03*
G01*
X2484704Y2198496D03*
D25*
G01*
X-3213100Y3136900D03*
D26*
G01*
X-2959100Y3136900D03*
G01*
X-2705100Y3136900D03*
G01*
X-2451100Y3136900D03*
G01*
X-2197100Y3136900D03*
G01*
X-1943100Y3136900D03*
D27*
G01*
X-1452295Y3087395D03*
G01*
X-1452295Y3341395D03*
D28*
G01*
X-3519347Y-2284704D03*
G01*
X-4119295Y-2284704D03*
G01*
X-3519347Y-2684754D03*
G01*
X-4119295Y-2684754D03*
G01*
X-2992043Y-2424404D03*
G01*
X-2392095Y-2424404D03*
G01*
X-2992043Y-2024354D03*
G01*
X-2392095Y-2024354D03*
G01*
X2418156Y-2386304D03*
G01*
X3018104Y-2386304D03*
G01*
X2418156Y-1986254D03*
G01*
X3018104Y-1986254D03*
G01*
X4240352Y-2284704D03*
G01*
X3640404Y-2284704D03*
G01*
X4240352Y-2684754D03*
G01*
X3640404Y-2684754D03*
D29*
G01*
X3056305Y2947695D03*
G01*
X2586304Y2947695D03*
G01*
X2116302Y2947695D03*
G01*
X2586304Y2947695D03*
D30*
G01*
X-3954195Y2274595D03*
G01*
X-4204182Y2274595D03*
G01*
X-3704183Y2274595D03*
D31*
G01*
X-3509695Y1572031D03*
G01*
X-4396155Y1574571D03*
D30*
G01*
X4123004Y2261895D03*
G01*
X3873017Y2261895D03*
G01*
X4373016Y2261895D03*
D31*
G01*
X4567504Y1559331D03*
G01*
X3681044Y1561871D03*
D32*
G01*
X-245795Y-2068804D03*
D28*
G01*
X8204Y-2068804D03*
G01*
X262204Y-2068804D03*
D33*
G01*
X-877900Y2011197D03*
G01*
X-623900Y2011197D03*
G01*
X-369900Y2011197D03*
G01*
X-115900Y2011197D03*
G01*
X138099Y2011197D03*
G01*
X392099Y2011197D03*
G01*
X646099Y2011197D03*
D34*
G01*
X900104Y2011194D03*
D35*
G01*
X-2805303Y852195D03*
G01*
X2694686Y852195D03*
G01*
X2694000Y-855446D03*
G01*
X-2805988Y-855446D03*
D36*
G01*
X3286302Y2255291D03*
G01*
X-3113684Y2255291D03*
G01*
X-4513681Y-2044700D03*
G01*
X4686300Y-2044700D03*
M02*
